<?xml version="1.0" encoding="UTF-8" standalone="no"?>
<!DOCTYPE svg PUBLIC "-//W3C//DTD SVG 1.1//EN" "http://www.w3.org/Graphics/SVG/1.1/DTD/svg11.dtd">
<svg width="100%" height="100%" viewBox="0 0 1080 1080" version="1.1" xmlns="http://www.w3.org/2000/svg" xmlns:xlink="http://www.w3.org/1999/xlink" xml:space="preserve" xmlns:serif="http://www.serif.com/" style="fill-rule:evenodd;clip-rule:evenodd;stroke-linejoin:round;stroke-miterlimit:2;">
    <rect id="Artboard1" x="0" y="0" width="1080" height="1080" style="fill:none;"/>
    <g id="Artboard11" serif:id="Artboard1">
        <g transform="matrix(1.05282,0,0,1.05282,-14.7035,-1.85975)">
            <g transform="matrix(0.707107,0.707107,-0.707107,0.707107,443.018,-239.089)">
                <path d="M360.555,325.05C363.681,325.05 366.214,327.584 366.214,330.709C366.214,345.873 366.214,387.297 366.214,402.461C366.214,403.961 365.618,405.4 364.557,406.462C363.495,407.523 362.056,408.119 360.555,408.119C350.225,408.119 328.427,408.119 318.097,408.119C314.972,408.119 312.439,410.652 312.439,413.777L312.439,747.415C312.439,750.54 314.972,753.073 318.097,753.073C359.206,753.073 611.56,753.073 652.669,753.073C655.794,753.073 658.327,750.54 658.327,747.415C658.327,725.885 658.327,649.206 658.327,627.676C658.327,624.551 655.794,622.018 652.669,622.018C622.361,622.018 479.48,622.018 449.173,622.018C447.672,622.018 446.233,621.422 445.172,620.361C444.11,619.299 443.514,617.86 443.514,616.359C443.514,601.196 443.514,559.772 443.514,544.608C443.514,543.107 444.11,541.668 445.172,540.607C446.233,539.545 447.672,538.949 449.173,538.949C486.611,538.949 698.299,538.949 735.737,538.949C738.862,538.949 741.396,541.483 741.396,544.608C741.396,581.991 741.396,793.1 741.396,830.483C741.396,831.984 740.8,833.423 739.738,834.484C738.677,835.546 737.238,836.142 735.737,836.142C683.576,836.142 287.19,836.142 235.029,836.142C233.528,836.142 232.089,835.546 231.028,834.484C229.966,833.423 229.37,831.984 229.37,830.483C229.37,778.378 229.37,382.814 229.37,330.709C229.37,327.584 231.904,325.05 235.029,325.05C257.242,325.05 338.343,325.05 360.555,325.05Z" style="fill:rgb(57,207,141);"/>
            </g>
            <g transform="matrix(-0.707107,-0.707107,0.707107,-0.707107,610.725,1268.43)">
                <path d="M360.555,325.05C363.681,325.05 366.214,327.584 366.214,330.709C366.214,345.873 366.214,387.297 366.214,402.461C366.214,403.961 365.618,405.4 364.557,406.462C363.495,407.523 362.056,408.119 360.555,408.119C350.225,408.119 328.427,408.119 318.097,408.119C314.972,408.119 312.439,410.652 312.439,413.777C312.439,454.817 312.439,706.375 312.439,747.415C312.439,750.54 314.972,753.073 318.097,753.073C359.206,753.073 611.56,753.073 652.669,753.073C655.794,753.073 658.327,750.54 658.327,747.415C658.327,725.885 658.327,649.206 658.327,627.676C658.327,624.551 655.794,622.018 652.669,622.018C622.361,622.018 479.48,622.018 449.173,622.018C447.672,622.018 446.233,621.422 445.172,620.361C444.11,619.299 443.514,617.86 443.514,616.359C443.514,601.196 443.514,559.772 443.514,544.608C443.514,543.107 444.11,541.668 445.172,540.607C446.233,539.545 447.672,538.949 449.173,538.949C486.611,538.949 698.299,538.949 735.737,538.949C738.862,538.949 741.396,541.483 741.396,544.608C741.396,581.991 741.396,793.1 741.396,830.483C741.396,831.984 740.8,833.423 739.738,834.484C738.677,835.546 737.238,836.142 735.737,836.142C683.576,836.142 287.19,836.142 235.029,836.142C233.528,836.142 232.089,835.546 231.028,834.484C229.966,833.423 229.37,831.984 229.37,830.483C229.37,778.378 229.37,382.814 229.37,330.709C229.37,327.584 231.904,325.05 235.029,325.05C257.242,325.05 338.343,325.05 360.555,325.05Z" style="fill:rgb(57,207,141);"/>
            </g>
        </g>
    </g>
</svg>
